<svg width="240" height="240" viewBox="0 0 240 240" fill="none" xmlns="http://www.w3.org/2000/svg">
<path d="M119.924 66.1711C107.653 66.1667 97.7044 55.1533 99.5422 42.6067C100.92 33.2067 108.662 25.84 118.122 24.9756C130.331 23.8622 140.627 33.5045 140.662 45.52C140.696 56.9445 131.427 66.1733 119.924 66.1689V66.1711Z" fill="#172B24"/>
<path fill-rule="evenodd" clip-rule="evenodd" d="M119.309 70.9757C146.251 70.6024 168.209 92.3312 168.209 119.187L168.207 119.189C168.207 127.02 166.34 134.413 163.027 140.951C161.351 143.591 159.673 146.229 157.993 148.867C149.169 160.151 136.191 167.405 119.993 167.405C103.796 167.405 89.4622 159.416 80.72 147.162C80.2978 146.505 79.8744 145.847 79.4511 145.189C79.0278 144.531 78.6044 143.873 78.1822 143.216C73.9044 135.787 71.5489 127.109 71.7955 117.865C72.4844 92.1468 93.5844 71.3335 119.309 70.9757ZM77.8333 118.509C77.8378 95.5201 96.8111 76.6045 119.896 76.5712V76.5734C143.198 76.5401 162.204 95.5223 162.153 118.778C162.1 142.178 143.28 160.905 119.853 160.869C96.4933 160.831 77.8289 142.018 77.8333 118.509Z" fill="#172B24"/>
<path d="M119.922 87.8511C103.016 87.8756 89.1222 101.729 89.1178 118.564C89.1133 135.78 102.782 149.56 119.891 149.587C137.049 149.613 150.831 135.898 150.869 118.762C150.907 101.731 136.987 87.8289 119.922 87.8534V87.8511Z" fill="#172B24"/>
<path d="M151.471 167.06C151.842 166.487 151.182 165.8 150.6 166.153C141.718 171.547 131.293 174.656 120.14 174.656C108.987 174.656 98.3356 171.482 89.3911 165.98C88.8089 165.622 88.1467 166.307 88.5156 166.882C97.3 180.604 106.082 194.329 114.873 208.047C116.338 210.329 117.833 212.591 119.398 214.98C119.653 215.371 120.229 215.373 120.482 214.98L151.473 167.058L151.471 167.06Z" fill="#172B24"/>
</svg>
