<?xml version="1.0" encoding="UTF-8"?>
<svg id="Layer_1" xmlns="http://www.w3.org/2000/svg" viewBox="0 0 433.94 856.74">
  <defs>
    <style>
      .cls-1 {
        fill: #fff;
      }

      .cls-2 {
        fill: #1d514b;
      }

      .cls-3 {
        fill: #d62929;
      }
    </style>
  </defs>
  <path class="cls-3" d="M216.66,185.77c-55.22-.02-99.99-49.58-91.72-106.04C131.14,37.43,165.98,4.28,208.55.39c54.94-5.01,101.27,38.38,101.43,92.45.15,51.41-41.56,92.94-93.32,92.92Z"/>
  <path class="cls-2" d="M433.94,424.34c0-120.85-98.81-218.63-220.05-216.95C98.13,209,3.18,302.66.08,418.39c-1.11,41.6,9.49,80.65,28.74,114.08,3.8,5.92,7.62,11.84,11.42,17.76,39.34,55.14,103.84,91.09,176.73,91.09s131.29-32.64,171-83.42c7.56-11.87,15.11-23.74,22.65-35.62,14.91-29.42,23.31-62.69,23.31-97.93Z"/>
  <path class="cls-1" d="M216.53,232.57c-103.88.15-189.26,85.27-189.28,188.72-.02,105.79,83.97,190.45,189.09,190.62,105.42.16,190.11-84.11,190.35-189.41.23-104.65-85.3-190.07-190.16-189.92Z"/>
  <path class="cls-3" d="M216.65,283.33c-76.08.11-138.6,62.45-138.62,138.21-.02,77.47,61.49,139.48,138.48,139.6,77.21.12,139.23-61.6,139.4-138.71.17-76.64-62.47-139.2-139.26-139.09Z"/>
  <path class="cls-3" d="M358.62,639.77c1.67-2.58-1.3-5.67-3.92-4.08-39.97,24.27-86.88,38.26-137.07,38.26s-98.12-14.28-138.37-39.04c-2.62-1.61-5.6,1.47-3.94,4.06,39.53,61.75,79.05,123.51,118.61,185.24,6.59,10.27,13.32,20.45,20.36,31.2,1.15,1.76,3.74,1.77,4.88,0l139.46-215.65Z"/>
</svg>