<svg width="32" height="32" viewBox="0 0 32 32" fill="none" xmlns="http://www.w3.org/2000/svg">
<path d="M29.36 22.4267L25.1867 12.6667C24.4267 10.88 23.2933 9.86667 22 9.8C20.72 9.73334 19.48 10.6267 18.5333 12.3333L16 16.88C15.4667 17.84 14.7067 18.4133 13.88 18.48C13.04 18.56 12.2 18.12 11.52 17.2533L11.2267 16.88C10.28 15.6933 9.10667 15.12 7.90667 15.24C6.70667 15.36 5.68 16.1867 5 17.5333L2.69333 22.1333C1.86667 23.8 1.94667 25.7333 2.92 27.3067C3.89333 28.88 5.58667 29.8267 7.44 29.8267H24.4533C26.24 29.8267 27.9067 28.9333 28.8933 27.44C29.9067 25.9467 30.0667 24.0667 29.36 22.4267Z" fill="#60766F"/>
<path d="M9.29335 11.1733C11.7823 11.1733 13.8 9.15563 13.8 6.66667C13.8 4.17771 11.7823 2.16 9.29335 2.16C6.80439 2.16 4.78668 4.17771 4.78668 6.66667C4.78668 9.15563 6.80439 11.1733 9.29335 11.1733Z" fill="#60766F"/>
</svg>
